<svg height="1em" style="flex:none;line-height:1" viewBox="0 0 24 24" width="1em" xmlns="http://www.w3.org/2000/svg"><title>DASD Thinking</title><defs><linearGradient id="dasd-fill" x1="0%" y1="0%" x2="100%" y2="100%"><stop offset="0%" stop-color="#a855f7"/><stop offset="100%" stop-color="#6366f1"/></linearGradient></defs><path d="M12 2C6.48 2 2 6.48 2 12s4.48 10 10 10 10-4.48 10-10S17.52 2 12 2zm0 18c-4.41 0-8-3.59-8-8s3.59-8 8-8 8 3.59 8 8-3.59 8-8 8z" fill="url(#dasd-fill)"/><path d="M12.5 7h-1c-1.93 0-3.5 1.57-3.5 3.5 0 .88.39 1.67 1 2.22V14c0 .55.45 1 1 1h3c.55 0 1-.45 1-1v-1.28c.61-.55 1-1.34 1-2.22C15 8.57 14.43 7 12.5 7zm.5 6.12V14h-2v-.88C10.42 12.78 10 12.19 10 11.5 10 10.12 10.62 9 12 9s2 1.12 2 2.5c0 .69-.42 1.28-1 1.62z" fill="url(#dasd-fill)"/><rect x="10" y="16" width="4" height="1" rx=".5" fill="url(#dasd-fill)"/><rect x="10.5" y="18" width="3" height="1" rx=".5" fill="url(#dasd-fill)"/></svg>