<svg height="1em" style="flex:none;line-height:1" viewBox="0 0 24 24" width="1em" xmlns="http://www.w3.org/2000/svg"><title>Dolphin</title><defs><linearGradient id="dolphin-fill" x1="0%" y1="0%" x2="100%" y2="100%"><stop offset="0%" stop-color="#2563eb"/><stop offset="100%" stop-color="#06b6d4"/></linearGradient></defs><path d="M21.5 5.5c-1.2-.8-3-1-4.5-.5-.8-1.5-2.5-2.5-4.5-2.5-1 0-2 .3-2.8.8C8.5 2 6.5 1.5 5 2c-1 .3-1.8 1-2 2-.3 1.2.2 2.5 1.2 3.2-.5.8-.7 1.8-.7 2.8 0 1.5.5 3 1.5 4l-2.5 4.5c-.3.5-.1 1.1.3 1.4.2.1.4.1.5.1.4 0 .7-.2.9-.5L6.5 15c.8.3 1.6.5 2.5.5h.5l-1.2 3.2c-.2.5 0 1.1.5 1.3.1.1.3.1.4.1.4 0 .8-.3 1-.7l1.5-4.2c.3 0 .5.1.8.1 2 0 3.8-.8 5-2.2.8.3 1.7.4 2.5.2 1.5-.4 2.5-1.5 3-3 .3-1.2 0-2.5-.8-3.3.3-.5.4-1 .3-1.5zM9.5 8a1 1 0 110-2 1 1 0 010 2z" fill="url(#dolphin-fill)"/></svg>